<svg width="34" height="34" viewBox="0 0 34 34" fill="none" xmlns="http://www.w3.org/2000/svg">
<g clip-path="url(#clip0_471_106)">
<path d="M18.1379 16.4196L25.7891 27.3636H22.6491L16.4055 18.4332V18.4327L15.4888 17.1217L8.19531 6.68896H11.3354L17.2212 15.1086L18.1379 16.4196Z" fill="#00FF01"/>
<path d="M30.3262 0H3.67377C1.64486 0 0 1.64486 0 3.67377V30.3262C0 32.3551 1.64486 34 3.67377 34H30.3262C32.3551 34 34 32.3551 34 30.3262V3.67377C34 1.64486 32.3551 0 30.3262 0ZM21.6863 28.8327L15.3682 19.6374L7.45783 28.8327H5.4134L14.4604 18.3168L5.4134 5.14988H12.3137L18.2965 13.8571L25.7871 5.14988H27.8315L19.2046 15.1781H19.204L28.5866 28.8327H21.6863Z" fill="#00FF01"/>
</g>
<defs>
<clipPath id="clip0_471_106">
<rect width="34" height="34" fill="white"/>
</clipPath>
</defs>
</svg>
