<svg width="34" height="34" viewBox="0 0 34 34" fill="none" xmlns="http://www.w3.org/2000/svg">
<g clip-path="url(#clip0_471_109)">
<path d="M14.8145 13.6538V19.8602L20.5351 16.784L14.8145 13.6538Z" fill="#00FF01"/>
<path d="M25.473 0H8.5C3.83175 0 0 3.83175 0 8.52698V25.5C0 30.1683 3.83175 34 8.5 34H25.473C30.1683 34 34 30.1683 34 25.473V8.52698C34 3.83175 30.1683 0 25.473 0ZM27.5238 17.8365C27.5238 19.6175 27.3619 21.4254 27.3619 21.4254C27.3619 21.4254 27.173 22.9365 26.5524 23.6111C25.7429 24.5016 24.8524 24.5016 24.4476 24.5556C21.4794 24.7714 17.027 24.7984 17.027 24.7984C17.027 24.7984 11.4952 24.7175 9.79524 24.5556C9.33651 24.4746 8.25714 24.5016 7.44762 23.6111C6.8 22.9365 6.6381 21.4254 6.6381 21.4254C6.6381 21.4254 6.47619 19.6175 6.47619 17.8365V16.1635C6.47619 14.3825 6.6381 12.5746 6.6381 12.5746C6.6381 12.5746 6.82698 11.0635 7.44762 10.3889C8.25714 9.49841 9.14762 9.47143 9.55238 9.41746C12.5476 9.20159 17 9.1746 17 9.1746C17 9.1746 21.4524 9.20159 24.4206 9.41746C24.8254 9.47143 25.7429 9.49841 26.5524 10.3619C27.2 11.0365 27.3619 12.5746 27.3619 12.5746C27.3619 12.5746 27.5238 14.3825 27.5238 16.1635V17.8365Z" fill="#00FF01"/>
</g>
<defs>
<clipPath id="clip0_471_109">
<rect width="34" height="34" fill="white"/>
</clipPath>
</defs>
</svg>
